M48
; DRILL file {KiCad 7.0.9} date Monday, January 08, 2024 at 06:17:22 PM
; FORMAT={-:-/ absolute / inch / decimal}
; #@! TF.CreationDate,2024-01-08T18:17:22+01:00
; #@! TF.GenerationSoftware,Kicad,Pcbnew,7.0.9
; #@! TF.FileFunction,Plated,1,2,PTH
FMAT,2
INCH
; #@! TA.AperFunction,Plated,PTH,ComponentDrill
T1C0.0197
; #@! TA.AperFunction,Plated,PTH,ComponentDrill
T2C0.0280
; #@! TA.AperFunction,Plated,PTH,ComponentDrill
T3C0.0315
; #@! TA.AperFunction,Plated,PTH,ComponentDrill
T4C0.1260
%
G90
G05
T1
X3.4213Y-1.1
X3.4606Y-1.1
X3.5Y-1.1
X3.5394Y-1.1
T2
X2.9382Y-1.1882
X2.9382Y-1.2382
X2.9382Y-1.2882
X2.9382Y-1.3382
X2.9382Y-1.3882
X2.9382Y-1.4382
X2.9382Y-1.4882
X2.9382Y-1.5382
X2.9382Y-1.5882
X2.9382Y-1.6382
X2.9382Y-1.6882
X2.9882Y-1.1882
X2.9882Y-1.2382
X2.9882Y-1.2882
X2.9882Y-1.3382
X2.9882Y-1.3882
X2.9882Y-1.4382
X2.9882Y-1.4882
X2.9882Y-1.5382
X2.9882Y-1.5882
X2.9882Y-1.6382
X2.9882Y-1.6882
T3
X2.1882Y-1.0632
X2.1905Y-1.8343
X2.7882Y-1.0632
X2.7882Y-1.782
X3.5632Y-1.6682
X3.5632Y-1.7882
X4.1632Y-1.6682
X4.1632Y-1.7882
T4
X2.1063Y-1.437
T0
M30
